HIERARCHY
ROOT Hips
{
    OFFSET   0.000000   0.000000   0.000000
    CHANNELS 6 Xposition Yposition Zposition Zrotation Xrotation Yrotation
    JOINT Chest
    {
        OFFSET   0.000000   8.007230   0.000000
        CHANNELS 3 Zrotation Xrotation Yrotation
        JOINT Chest2
        {
            OFFSET   0.000000  22.077100   0.000000
            CHANNELS 3 Zrotation Xrotation Yrotation
            JOINT Neck
            {
                OFFSET   0.000000  23.254700   0.000000
                CHANNELS 3 Zrotation Xrotation Yrotation
                JOINT Head
                {
                    OFFSET   0.000010  14.370000   1.956610
                    CHANNELS 3 Zrotation Xrotation Yrotation
                    End Site
                    {
                        OFFSET   0.000000  19.566000   0.000000
                    }
                }
            }
            JOINT LeftCollar
            {
                OFFSET   3.911900  19.017000  -0.467063
                CHANNELS 3 Zrotation Xrotation Yrotation
                JOINT LeftShoulder
                {
                    OFFSET  10.383700   0.000000   0.000000
                    CHANNELS 3 Zrotation Xrotation Yrotation
                    JOINT LeftElbow
                    {
                        OFFSET  26.662100   0.001671   0.000522
                        CHANNELS 3 Zrotation Xrotation Yrotation
                        JOINT LeftWrist
                        {
                            OFFSET  28.869000   0.000037  -0.000114
                            CHANNELS 3 Zrotation Xrotation Yrotation
                            JOINT LeftFinger0
                            {
                                OFFSET   2.044650  -2.323450   3.252850
                                CHANNELS 3 Zrotation Xrotation Yrotation
                                JOINT LeftFinger01
                                {
                                    OFFSET   3.088140   0.000000   0.000000
                                    CHANNELS 3 Zrotation Xrotation Yrotation
                                    JOINT LeftFinger02
                                    {
                                        OFFSET   2.639460   0.000000   0.000000
                                        CHANNELS 3 Zrotation Xrotation Yrotation
                                        End Site
                                        {
                                            OFFSET   2.582190   0.000000   0.000000
                                        }
                                    }
                                }
                            }
                            JOINT LeftFinger1
                            {
                                OFFSET   8.364480   0.000000   3.252850
                                CHANNELS 3 Zrotation Xrotation Yrotation
                                JOINT LeftFinger11
                                {
                                    OFFSET   4.646930   0.000000   0.000000
                                    CHANNELS 3 Zrotation Xrotation Yrotation
                                    JOINT LeftFinger12
                                    {
                                        OFFSET   2.323470   0.000000   0.000000
                                        CHANNELS 3 Zrotation Xrotation Yrotation
                                        End Site
                                        {
                                            OFFSET   2.273050   0.000000   0.000000
                                        }
                                    }
                                }
                            }
                            JOINT LeftFinger2
                            {
                                OFFSET   8.364490   0.000016   1.078090
                                CHANNELS 3 Zrotation Xrotation Yrotation
                                JOINT LeftFinger21
                                {
                                    OFFSET   5.111620   0.000000   0.000000
                                    CHANNELS 3 Zrotation Xrotation Yrotation
                                    JOINT LeftFinger22
                                    {
                                        OFFSET   2.788150   0.000013   0.000000
                                        CHANNELS 3 Zrotation Xrotation Yrotation
                                        End Site
                                        {
                                            OFFSET   2.727660   0.000000   0.000000
                                        }
                                    }
                                }
                            }
                            JOINT LeftFinger3
                            {
                                OFFSET   7.899780   0.000016  -1.078090
                                CHANNELS 3 Zrotation Xrotation Yrotation
                                JOINT LeftFinger31
                                {
                                    OFFSET   4.646930   0.000000   0.000000
                                    CHANNELS 3 Zrotation Xrotation Yrotation
                                    JOINT LeftFinger32
                                    {
                                        OFFSET   2.323470   0.000000   0.000000
                                        CHANNELS 3 Zrotation Xrotation Yrotation
                                        End Site
                                        {
                                            OFFSET   2.273050   0.000000   0.000000
                                        }
                                    }
                                }
                            }
                            JOINT LeftFinger4
                            {
                                OFFSET   7.435080   0.000000  -3.252850
                                CHANNELS 3 Zrotation Xrotation Yrotation
                                JOINT LeftFinger41
                                {
                                    OFFSET   3.717550   0.000000   0.000000
                                    CHANNELS 3 Zrotation Xrotation Yrotation
                                    JOINT LeftFinger42
                                    {
                                        OFFSET   1.858760   0.000000   0.000000
                                        CHANNELS 3 Zrotation Xrotation Yrotation
                                        End Site
                                        {
                                            OFFSET   1.818440   0.000000   0.000000
                                        }
                                    }
                                }
                            }
                        }
                    }
                }
            }
            JOINT RightCollar
            {
                OFFSET  -3.911900  19.017000  -0.467064
                CHANNELS 3 Zrotation Xrotation Yrotation
                JOINT RightShoulder
                {
                    OFFSET -10.383700   0.000000   0.000000
                    CHANNELS 3 Zrotation Xrotation Yrotation
                    JOINT RightElbow
                    {
                        OFFSET -26.662100   0.001633   0.000260
                        CHANNELS 3 Zrotation Xrotation Yrotation
                        JOINT RightWrist
                        {
                            OFFSET -28.869000  -0.000045  -0.000080
                            CHANNELS 3 Zrotation Xrotation Yrotation
                            JOINT RightFinger0
                            {
                                OFFSET  -2.044660  -2.323490   3.252850
                                CHANNELS 3 Zrotation Xrotation Yrotation
                                JOINT RightFinger01
                                {
                                    OFFSET  -3.088140   0.000000   0.000000
                                    CHANNELS 3 Zrotation Xrotation Yrotation
                                    JOINT RightFinger02
                                    {
                                        OFFSET  -2.639450   0.000000   0.000000
                                        CHANNELS 3 Zrotation Xrotation Yrotation
                                        End Site
                                        {
                                            OFFSET  -2.582190   0.000000   0.000000
                                        }
                                    }
                                }
                            }
                            JOINT RightFinger1
                            {
                                OFFSET  -8.364480   0.000000   3.252850
                                CHANNELS 3 Zrotation Xrotation Yrotation
                                JOINT RightFinger11
                                {
                                    OFFSET  -4.646920   0.000000   0.000000
                                    CHANNELS 3 Zrotation Xrotation Yrotation
                                    JOINT RightFinger12
                                    {
                                        OFFSET  -2.323470   0.000000   0.000000
                                        CHANNELS 3 Zrotation Xrotation Yrotation
                                        End Site
                                        {
                                            OFFSET  -2.273050   0.000000   0.000000
                                        }
                                    }
                                }
                            }
                            JOINT RightFinger2
                            {
                                OFFSET  -8.364480   0.000000   1.078090
                                CHANNELS 3 Zrotation Xrotation Yrotation
                                JOINT RightFinger21
                                {
                                    OFFSET  -5.111610   0.000000   0.000000
                                    CHANNELS 3 Zrotation Xrotation Yrotation
                                    JOINT RightFinger22
                                    {
                                        OFFSET  -2.788160   0.000000   0.000000
                                        CHANNELS 3 Zrotation Xrotation Yrotation
                                        End Site
                                        {
                                            OFFSET  -2.727660   0.000000   0.000000
                                        }
                                    }
                                }
                            }
                            JOINT RightFinger3
                            {
                                OFFSET  -7.899780   0.000000  -1.078090
                                CHANNELS 3 Zrotation Xrotation Yrotation
                                JOINT RightFinger31
                                {
                                    OFFSET  -4.646930   0.000000   0.000000
                                    CHANNELS 3 Zrotation Xrotation Yrotation
                                    JOINT RightFinger32
                                    {
                                        OFFSET  -2.323470   0.000000   0.000000
                                        CHANNELS 3 Zrotation Xrotation Yrotation
                                        End Site
                                        {
                                            OFFSET  -2.273050   0.000000   0.000000
                                        }
                                    }
                                }
                            }
                            JOINT RightFinger4
                            {
                                OFFSET  -7.435090   0.000000  -3.252850
                                CHANNELS 3 Zrotation Xrotation Yrotation
                                JOINT RightFinger41
                                {
                                    OFFSET  -3.717550   0.000000   0.000000
                                    CHANNELS 3 Zrotation Xrotation Yrotation
                                    JOINT RightFinger42
                                    {
                                        OFFSET  -1.858760   0.000000   0.000000
                                        CHANNELS 3 Zrotation Xrotation Yrotation
                                        End Site
                                        {
                                            OFFSET  -1.818440   0.000000   0.000000
                                        }
                                    }
                                }
                            }
                        }
                    }
                }
            }
        }
    }
    JOINT LeftHip
    {
        OFFSET   9.782990   0.000000   0.000000
        CHANNELS 3 Zrotation Xrotation Yrotation
        JOINT LeftKnee
        {
            OFFSET  -0.000063 -41.789100   0.001657
            CHANNELS 3 Zrotation Xrotation Yrotation
            JOINT LeftAnkle
            {
                OFFSET   0.000078 -41.133200  -0.000113
                CHANNELS 3 Zrotation Xrotation Yrotation
                JOINT LeftToe
                {
                    OFFSET   0.000000  -6.358970  14.674500
                    CHANNELS 3 Zrotation Xrotation Yrotation
                    End Site
                    {
                        OFFSET   0.000000   0.000000   3.913200
                    }
                }
            }
        }
    }
    JOINT RightHip
    {
        OFFSET  -9.782990   0.000000   0.000000
        CHANNELS 3 Zrotation Xrotation Yrotation
        JOINT RightKnee
        {
            OFFSET   0.000053 -41.789200   0.000277
            CHANNELS 3 Zrotation Xrotation Yrotation
            JOINT RightAnkle
            {
                OFFSET   0.000030 -41.133200  -0.000150
                CHANNELS 3 Zrotation Xrotation Yrotation
                JOINT RightToe
                {
                    OFFSET   0.000000  -6.358960  14.674500
                    CHANNELS 3 Zrotation Xrotation Yrotation
                    End Site
                    {
                        OFFSET   0.000000   0.000000   3.913200
                    }
                }
            }
        }
    }
}
MOTION
Frames: 4
Frame Time:   0.016667
 -0.087732  89.462600  -1.992540  -8.336510 -13.996600 -14.504100   1.189290   7.494300  -0.733392   2.508570  14.970900  -1.645910   3.064110   0.281119  -0.016071   5.033660   0.564921 -20.282400  -5.569660  -0.846963   1.923400 -71.546400  20.042900  -6.914330   0.705619  -5.785560 -19.232800  12.797800  -9.540580   0.798336  38.804400  32.775800 -56.334700 -33.696400   0.004208   0.002734 -11.848200   0.004449  -0.001101 -32.803400   5.870130  -9.018060 -27.216200  -0.006177  -0.009804 -19.051400   0.002902  -0.009854 -29.877500  -3.185890   5.525990 -45.047600  -0.000343  -0.002942 -30.001700   0.012542   0.003116 -28.612700  -3.063120   5.594800 -40.654100   0.007307  -0.003285 -27.075600   0.001566  -0.002423 -36.166500  -3.770820   5.145330 -54.504800  -0.000300  -0.003071 -36.300200   0.001228   0.000672   8.563040   0.008753   9.152270  40.506100 -17.814300  39.977600 -45.578700 -31.850000  52.124400 -35.290200  -7.600600  10.381300 -43.618800  49.822700  88.185200  42.776900  -0.001985   0.002055  17.532600   0.001424   0.009046   8.119700   0.737799   5.399430   6.607650  -0.000123  -0.001581   4.625360  -0.000241  -0.001170  78.822600   0.543132   0.010400  77.638200  -0.035689  -0.144828  58.218700  -0.103935  -0.022221  77.642100  -4.819970  -1.078760  77.738800   0.002999  -0.062981  58.304200  -0.038907  -0.026869  80.187500  -9.797540  -1.709480 110.000000  -0.001829   0.000328  79.945500  -0.002423  -0.005973   4.011620  18.403900   6.089520   0.793305   0.001044   7.155890  -0.522607  -4.106190   5.581020  -0.000000   0.000000   0.000000   7.375760  11.398000   2.848450  -4.422420   8.377410  -2.644260   1.989240  -4.825340   7.883780   0.000000   0.000000   0.000000
 -0.091969  89.469500  -1.974420  -8.305630 -13.978800 -14.402400   1.173790   7.465830  -0.730233   2.476320  14.914200  -1.637170   3.028450   0.297228  -0.015615   4.975690   0.597444 -20.285300  -5.582900  -0.852926   1.894280 -71.634700  19.892800  -6.876160   0.755711  -5.680490 -19.273900  12.818600  -9.554120   0.807687  38.813900  32.895000 -56.436100 -33.715800   0.003852   0.002620 -11.857900   0.004557  -0.000870 -32.856000   5.838000  -8.950390 -27.256400  -0.006821  -0.013929 -19.079500   0.002911  -0.012248 -29.882500  -3.206890   5.560140 -45.057600  -0.000596  -0.003487 -30.008400   0.012815   0.002971 -28.612900  -3.082800   5.629720 -40.711200   0.008262  -0.003302 -27.113700   0.001485  -0.002251 -36.201800  -3.800100   5.173530 -54.560600   0.000298  -0.002984 -36.337300   0.001217   0.001190   8.589470   0.106696   9.082170  41.544500 -18.797700  39.691900 -45.929900 -31.392400  51.436500 -36.233200  -4.828170   9.765780 -43.845600  49.751600  88.512000  43.280100  -0.002455   0.002498  17.872600   0.001849   0.009905   8.642670   0.473928   3.466170   6.995650  -0.010370  -0.012600   4.896950  -0.008010  -0.008173  82.608300   1.125490   0.031799  79.788200  -0.118418  -0.294274  59.841100  -0.235489  -0.014104  79.008300  -4.791040  -0.971405  79.082700  -0.001084  -0.115702  59.312100  -0.076394  -0.041239  81.259800  -9.776110  -1.535130 110.000000  -0.001810   0.000306  80.028100   0.000503  -0.006002   4.024700  18.381000   6.085450   0.796053   0.000868   7.112590  -0.539880  -4.109420   5.526700  -0.000000   0.000000   0.000000   7.375370  11.387200   2.889290  -4.411550   8.390390  -2.690680   2.000420  -4.876520   7.800540  -0.000000   0.000000   0.000000
 -0.091014  89.475600  -1.956630  -8.273170 -13.959200 -14.301700   1.161700   7.438070  -0.730862   2.452210  14.858900  -1.637690   2.992730   0.318706  -0.015118   4.917290   0.640829 -20.219200  -5.604480  -0.859631   1.845730 -71.732200  19.730200  -6.828720   0.785859  -5.559960 -19.263700  12.793300  -9.524430   0.824552  38.725200  32.887600 -56.414700 -33.818100  -0.011905   0.010580 -11.909000  -0.014568  -0.000645 -32.872400   5.806100  -8.893940 -27.268700  -0.008422  -0.013273 -19.088100   0.002914  -0.011513 -29.903500  -3.295610   5.707720 -45.098600   0.005126  -0.003586 -30.035700   0.013002   0.002912 -28.606300  -3.165460   5.780760 -40.744400   0.009360  -0.003217 -27.135800   0.001570  -0.002163 -36.217000  -3.905900   5.309490 -54.593800   0.004874  -0.006939 -36.359400   0.001335   0.001747   8.642850   0.188029   9.000150  42.461500 -19.637200  39.371200 -46.471900 -30.873900  50.618500 -36.570200  -1.685950   8.857450 -43.475800  49.409800  88.008400  44.134900   0.002839  -0.005149  18.593600   0.002915  -0.002488   8.408980   0.121690   0.928813   6.806410  -0.006637  -0.000306   4.764480  -0.004874   0.000317  86.372700   0.389453   0.018375  83.001500  -0.176414  -0.464905  62.417600  -0.373047  -0.003354  80.901400  -4.760090  -0.820440  80.610300  -0.010718  -0.193596  60.457700  -0.133613  -0.057069  83.376500  -9.799840  -1.172980 110.000000  -0.001792   0.000293  80.014100   0.001205  -0.006028   4.032460  18.351100   6.091060   0.799255   0.000955   7.058740  -0.555793  -4.113220   5.477070  -0.000000   0.000000   0.000000   7.370470  11.375700   2.921690  -4.399370   8.396980  -2.733510   2.006740  -4.923010   7.724010  -0.000000   0.000000   0.000000
 -0.089121  89.480900  -1.938230  -8.239160 -13.940100 -14.204600   1.154050   7.413360  -0.735546   2.435900  14.809500  -1.643920   2.954560   0.340362  -0.014615   4.854530   0.684738 -20.067100  -5.631580  -0.863191   1.794540 -71.845200  19.555700  -6.775700   0.799057  -5.429670 -19.222000  12.745000  -9.448760   0.844164  38.665900  32.864400 -56.385300 -33.943100  -0.027321   0.018547 -11.971500  -0.033693  -0.000438 -32.883900   5.772050  -8.842080 -27.270400  -0.009547  -0.008687 -19.089300   0.002914  -0.007064 -29.911000  -3.394760   5.876430 -45.127400   0.013155  -0.003600 -30.054900   0.013079   0.002904 -28.596800  -3.258780   5.952740 -40.755600   0.009996  -0.003079 -27.143300   0.001933  -0.001893 -36.212100  -4.019880   5.468660 -54.605700   0.010183  -0.010895 -36.367400   0.001525   0.002346   8.705440   0.265383   8.919260  43.267000 -20.336000  39.002700 -47.128400 -30.398900  49.743400 -36.217100   2.206240   7.682980 -43.110800  49.132000  87.511100  44.689900   0.008132  -0.012840  19.083300   0.003682  -0.014881   8.147920  -0.137466  -1.086560   6.617160   0.006071   0.028921   4.632000   0.005757   0.019920  88.803300  -0.742073  -0.005307  87.707200  -0.206265  -0.568170  65.937600  -0.455147   0.003623  83.054000  -4.741170  -0.641842  82.560300  -0.020687  -0.244586  61.920100  -0.171488  -0.066455  85.703800  -9.850000  -0.768719 110.000000  -0.001774   0.000278  80.000000   0.001430  -0.006051   4.036750  18.321100   6.096670   0.802053   0.001043   7.008550  -0.569945  -4.115780   5.429500  -0.000000   0.000000   0.000000   7.364760  11.364700   2.954040  -4.385720   8.403320  -2.779500   2.012340  -4.970320   7.653120   0.000000   0.000000   0.000000
